/* XPM */
static char *_521126184891[] = {
/* columns rows colors chars-per-pixel */
"74 78 21 1 ",
"  c gray22",
". c #484848",
"X c gray33",
"o c #646464",
"O c #7C7C7C",
"+ c #C67C51",
"@ c #CE8055",
"# c #E68C5D",
"$ c #EE9461",
"% c #FA9C66",
"& c #FAA475",
"* c #961186",
"= c gray55",
"- c #989898",
"; c gray66",
": c #FAB084",
"> c #FBBC9F",
", c #FBCCB2",
"< c #C0C0C0",
"1 c gainsboro",
"2 c gray99",
/* pixels */
"**************************************************************************",
"**************************************************************************",
"*;;;;*********************************************************************",
"*;;;;*********************************************************************",
"*;;;;*********************************************************************",
"*;;;;*********************************************************************",
"*2222XXXX*****************************************************************",
"*2222XXXX*****************************************************************",
"*2222XXXX*****************************************************************",
"*2222XXXX*****************************************************************",
"*2222;;;;XXXX*************************************************************",
"*2222;;;;XXXX*************************************************************",
"*2222;;;;XXXX*************************************************************",
"*2222;;;;XXXX*************************************************************",
"*2222;;;;;;;;XXXX*********************************************************",
"*2222;;;;;;;;XXXX*********************************************************",
"*2222;;;;;;;;XXXX*********************************************************",
"*2222;;;;;;;;XXXX*********************************************************",
"*2222<<<<;;;;;;;;XXXX*****************************************************",
"*2222<<<<;;;;;;;;XXXX*****************************************************",
"*2222<<<<;;;;;;;;XXXX*****************************************************",
"*2222<<<<;;;;;;;;XXXX*****************************************************",
"*22221111;;;;;;;;;;;;XXXX*************************************************",
"*22221111;;;;;;;;;;;;XXXX*************************************************",
"*22221111;;;;;;;;;;;;XXXX*************************************************",
"*22221111;;;;;;;;;;;;XXXX*************************************************",
"*<<<<2222<<<<;;;;;;;;OOOOXXXX*********************************************",
"*<<<<2222<<<<;;;;;;;;OOOOXXXX*********************************************",
"*<<<<2222<<<<;;;;;;;;OOOOXXXX*********************************************",
"*<<<<2222<<<<;;;;;;;;OOOOXXXX*********************************************",
"*****22221111;;;;;;;;;;;;OOOOXXXX*****************************************",
"*****22221111;;;;;;;;;;;;OOOOXXXX*****************************************",
"*****22221111;;;;;;;;;;;;OOOOXXXX*****************************************",
"*****22221111;;;;;;;;;;;;OOOOXXXX*****************************************",
"*****<<<<2222<<<<;;;;;;;;;;;;OOOOXXXX*************************************",
"*****<<<<2222<<<<;;;;;;;;;;;;OOOOXXXX*************************************",
"*****<<<<2222<<<<;;;;;;;;;;;;OOOOXXXX*************************************",
"*****<<<<2222<<<<;;;;;;;;;;;;OOOOXXXX*************************************",
"*********====oooo....................................*********************",
"*********====oooo....................................*********************",
"*********====oooo....................................*********************",
"*********====oooo....................................*********************",
"*........        %%%%::::>>>>,,,,>>>>::::####    ....*********************",
"*........        %%%%::::>>>>,,,,>>>>::::####    ....*********************",
"*........        %%%%::::>>>>,,,,>>>>::::####    ....*********************",
"*........        %%%%::::>>>>,,,,>>>>::::####    ....*********************",
"*....        ::::,,,,,,,,,,,,,,,,>>>>::::&&&&####....*********************",
"*....        ::::,,,,,,,,,,,,,,,,>>>>::::&&&&####....*********************",
"*....        ::::,,,,,,,,,,,,,,,,>>>>::::&&&&####....*********************",
"*....        ::::,,,,,,,,,,,,,,,,>>>>::::&&&&####....*********************",
"*        %%%%,,,,,,,,,,,,,,,,,,,,,,,,>>>>&&&&####*************************",
"*        %%%%,,,,,,,,,,,,,,,,,,,,,,,,>>>>&&&&####*************************",
"*        %%%%,,,,,,,,,,,,,,,,,,,,,,,,>>>>&&&&####*************************",
"*        %%%%,,,,,,,,,,,,,,,,,,,,,,,,>>>>&&&&####*************************",
"*********$$$$>>>>>>>>::::>>>>,,,,,,,,>>>>::::%%%%####*********************",
"*********$$$$>>>>>>>>::::>>>>,,,,,,,,>>>>::::%%%%####*********************",
"*********$$$$>>>>>>>>::::>>>>,,,,,,,,>>>>::::%%%%####*********************",
"*********$$$$>>>>>>>>::::>>>>,,,,,,,,>>>>::::%%%%####*********************",
"*************$$$$%%%%%%%%::::>>>>>>>>>>>>::::&&&&####*********************",
"*************$$$$%%%%%%%%::::>>>>>>>>>>>>::::&&&&####*********************",
"*************$$$$%%%%%%%%::::>>>>>>>>>>>>::::&&&&####*********************",
"*************$$$$%%%%%%%%::::>>>>>>>>>>>>::::&&&&####*********************",
"*****************@@@@++++&&&&::::>>>>----;;;;;;;;----OOOO*****************",
"*****************@@@@++++&&&&::::>>>>----;;;;;;;;----OOOO*****************",
"*****************@@@@++++&&&&::::>>>>----;;;;;;;;----OOOO*****************",
"*****************@@@@++++&&&&::::>>>>----;;;;;;;;----OOOO*****************",
"*********************@@@@@@@@&&&&----;;;;;;;;;;;;;;;;----OOOOOOOO*********",
"*********************@@@@@@@@&&&&----;;;;;;;;;;;;;;;;----OOOOOOOO*********",
"*********************@@@@@@@@&&&&----;;;;;;;;;;;;;;;;----OOOOOOOO*********",
"*********************@@@@@@@@&&&&----;;;;;;;;;;;;;;;;----OOOOOOOO*********",
"*****************************----;;;;;;;;;;;;;;;;;;;;;;;;----OOOOOOOO*****",
"*****************************----;;;;;;;;;;;;;;;;;;;;;;;;----OOOOOOOO*****",
"*****************************----;;;;;;;;;;;;;;;;;;;;;;;;----OOOOOOOO*****",
"*****************************----;;;;;;;;;;;;;;;;;;;;;;;;----OOOOOOOO*****",
"*****************************--------;;;;;;;;;;;;;;;;;;;;--------OOOOOOOO*",
"*****************************--------;;;;;;;;;;;;;;;;;;;;--------OOOOOOOO*",
"*****************************--------;;;;;;;;;;;;;;;;;;;;--------OOOOOOOO*",
"*****************************--------;;;;;;;;;;;;;;;;;;;;--------OOOOOOOO*"
};
