/* XPM */
static char *_521126211370[] = {
/* columns rows colors chars-per-pixel */
"100 98 27 1 ",
"  c black",
". c #202020",
"X c #2C2C2C",
"o c #533C1F",
"O c #734C2B",
"+ c #7F502F",
"@ c #484848",
"# c gray33",
"$ c #646464",
"% c gray44",
"& c #7C7C7C",
"* c #A76844",
"= c #B37048",
"- c #C67C51",
"; c #DA8859",
": c #E68C5D",
"> c #EE9461",
", c #FA9C66",
"< c #FAA475",
"1 c #961186",
"2 c gray55",
"3 c #989898",
"4 c gray66",
"5 c #FAB084",
"6 c #FAB893",
"7 c #FBC4A6",
"8 c #FBD8C5",
/* pixels */
"1111111111111111111111111111111111111111111111111111111111111111111111111111111111111111111111111111",
"1111111111111111111111111111111111111111111111111111111111111111111111111111111111111111111111111111",
"11111111111111111111111111111111111111111111    1111111111111111111111111111111111111111111111111111",
"11111111111111111111111111111111111111111111    1111111111111111111111111111111111111111111111111111",
"11111111111111111111111111111111111111111111    1111111111111111111111111111111111111111111111111111",
"11111111111111111111111111111111111111111111    1111111111111111111111111111111111111111111111111111",
"1111111111111111111111111111111111111111####%%%%####111111111111111111111111111111111111111111111111",
"1111111111111111111111111111111111111111####%%%%####111111111111111111111111111111111111111111111111",
"1111111111111111111111111111111111111111####%%%%####111111111111111111111111111111111111111111111111",
"1111111111111111111111111111111111111111####%%%%####111111111111111111111111111111111111111111111111",
"111111111111111111111111111111111111@@@@&&&&4444&&&&@@@@11111111111111111111111111111111111111111111",
"111111111111111111111111111111111111@@@@&&&&4444&&&&@@@@11111111111111111111111111111111111111111111",
"111111111111111111111111111111111111@@@@&&&&4444&&&&@@@@11111111111111111111111111111111111111111111",
"111111111111111111111111111111111111@@@@&&&&4444&&&&@@@@11111111111111111111111111111111111111111111",
"111111111111111111111111111111111111@@@@&&&&4444&&&&@@@@11111111111111111111111111111111111111111111",
"111111111111111111111111111111111111@@@@&&&&4444&&&&@@@@11111111111111111111111111111111111111111111",
"111111111111111111111111111111111111@@@@&&&&4444&&&&@@@@11111111111111111111111111111111111111111111",
"111111111111111111111111111111111111@@@@&&&&4444&&&&@@@@11111111111111111111111111111111111111111111",
"11111111111111111111111111111111&&&&&&&&@@@@&&&&@@@@&&&&&&&&1111111111111111111111111111111111111111",
"11111111111111111111111111111111&&&&&&&&@@@@&&&&@@@@&&&&&&&&1111111111111111111111111111111111111111",
"11111111111111111111111111111111&&&&&&&&@@@@&&&&@@@@&&&&&&&&1111111111111111111111111111111111111111",
"11111111111111111111111111111111&&&&&&&&@@@@&&&&@@@@&&&&&&&&1111111111111111111111111111111111111111",
"1111111111111111111111111111XXXX&&&&3333XXXXXXXXXXXX$$$$&&&&####111111111111111111111111111111111111",
"1111111111111111111111111111XXXX&&&&3333XXXXXXXXXXXX$$$$&&&&####111111111111111111111111111111111111",
"1111111111111111111111111111XXXX&&&&3333XXXXXXXXXXXX$$$$&&&&####111111111111111111111111111111111111",
"1111111111111111111111111111XXXX&&&&3333XXXXXXXXXXXX$$$$&&&&####111111111111111111111111111111111111",
"1111111111111111111111111111XXXX&&&&4444%%%%&&&&%%%%$$$$&&&&@@@@111111111111111111111111111111111111",
"1111111111111111111111111111XXXX&&&&4444%%%%&&&&%%%%$$$$&&&&@@@@111111111111111111111111111111111111",
"1111111111111111111111111111XXXX&&&&4444%%%%&&&&%%%%$$$$&&&&@@@@111111111111111111111111111111111111",
"1111111111111111111111111111XXXX&&&&4444%%%%&&&&%%%%$$$$&&&&@@@@111111111111111111111111111111111111",
"1111111111111111111111111111XXXX&&&&4444333333333333$$$$&&&&XXXX111111111111111111111111111111111111",
"1111111111111111111111111111XXXX&&&&4444333333333333$$$$&&&&XXXX111111111111111111111111111111111111",
"1111111111111111111111111111XXXX&&&&4444333333333333$$$$&&&&XXXX111111111111111111111111111111111111",
"1111111111111111111111111111XXXX&&&&4444333333333333$$$$&&&&XXXX111111111111111111111111111111111111",
"1111111111111111111111111111XXXX@@@@3333444444444444@@@@@@@@    111111111111111111111111111111111111",
"1111111111111111111111111111XXXX@@@@3333444444444444@@@@@@@@    111111111111111111111111111111111111",
"1111111111111111111111111111XXXX@@@@3333444444444444@@@@@@@@    111111111111111111111111111111111111",
"1111111111111111111111111111XXXX@@@@3333444444444444@@@@@@@@    111111111111111111111111111111111111",
"1111111111111111111111111111XXXX....&&&&@@@@@@@@@@@@    ....    ****11111111111111111111111111111111",
"1111111111111111111111111111XXXX....&&&&@@@@@@@@@@@@    ....    ****11111111111111111111111111111111",
"1111111111111111111111111111XXXX....&&&&@@@@@@@@@@@@    ....    ****11111111111111111111111111111111",
"1111111111111111111111111111XXXX....&&&&@@@@@@@@@@@@    ....    ****11111111111111111111111111111111",
"111111111111111111111111>>>>XXXX....$$$$XXXXXXXXXXXX    ....    ****====1111111111111111111111111111",
"111111111111111111111111>>>>XXXX....$$$$XXXXXXXXXXXX    ....    ****====1111111111111111111111111111",
"111111111111111111111111>>>>XXXX....$$$$XXXXXXXXXXXX    ....    ****====1111111111111111111111111111",
"111111111111111111111111>>>>XXXX....$$$$XXXXXXXXXXXX    ....    ****====1111111111111111111111111111",
"11111111111111111111>>>>55555555....$$$$XXXXXXXXXXXX    ....oooo****====1111111111111111111111111111",
"11111111111111111111>>>>55555555....$$$$XXXXXXXXXXXX    ....oooo****====1111111111111111111111111111",
"11111111111111111111>>>>55555555....$$$$XXXXXXXXXXXX    ....oooo****====1111111111111111111111111111",
"11111111111111111111>>>>55555555....$$$$XXXXXXXXXXXX    ....oooo****====1111111111111111111111111111",
"11111111111111111111<<<<77778888----                ........OOOO============111111111111111111111111",
"11111111111111111111<<<<77778888----                ........OOOO============111111111111111111111111",
"11111111111111111111<<<<77778888----                ........OOOO============111111111111111111111111",
"11111111111111111111<<<<77778888----                ........OOOO============111111111111111111111111",
"11111111111111111111<<<<555588888888----++++++++++++====::::::::;;;;----====111111111111111111111111",
"11111111111111111111<<<<555588888888----++++++++++++====::::::::;;;;----====111111111111111111111111",
"11111111111111111111<<<<555588888888----++++++++++++====::::::::;;;;----====111111111111111111111111",
"11111111111111111111<<<<555588888888----++++++++++++====::::::::;;;;----====111111111111111111111111",
"1111111111111111<<<<555555558888888888888888777766665555<<<<::::::::;;;;====111111111111111111111111",
"1111111111111111<<<<555555558888888888888888777766665555<<<<::::::::;;;;====111111111111111111111111",
"1111111111111111<<<<555555558888888888888888777766665555<<<<::::::::;;;;====111111111111111111111111",
"1111111111111111<<<<555555558888888888888888777766665555<<<<::::::::;;;;====111111111111111111111111",
"1111111111111111<<<<5555::::5555888888888888777766665555<<<<,,,,::::;;;;----111111111111111111111111",
"1111111111111111<<<<5555::::5555888888888888777766665555<<<<,,,,::::;;;;----111111111111111111111111",
"1111111111111111<<<<5555::::5555888888888888777766665555<<<<,,,,::::;;;;----111111111111111111111111",
"1111111111111111<<<<5555::::5555888888888888777766665555<<<<,,,,::::;;;;----111111111111111111111111",
"1111111111111111<<<<5555<<<<::::55555555555555555555<<<<,,,,,,,,::::;;;;----111111111111111111111111",
"1111111111111111<<<<5555<<<<::::55555555555555555555<<<<,,,,,,,,::::;;;;----111111111111111111111111",
"1111111111111111<<<<5555<<<<::::55555555555555555555<<<<,,,,,,,,::::;;;;----111111111111111111111111",
"1111111111111111<<<<5555<<<<::::55555555555555555555<<<<,,,,,,,,::::;;;;----111111111111111111111111",
"1111111111111111>>>>55555555,,,,,,,,555555555555<<<<<<<<,,,,,,,,::::;;;;----111111111111111111111111",
"1111111111111111>>>>55555555,,,,,,,,555555555555<<<<<<<<,,,,,,,,::::;;;;----111111111111111111111111",
"1111111111111111>>>>55555555,,,,,,,,555555555555<<<<<<<<,,,,,,,,::::;;;;----111111111111111111111111",
"1111111111111111>>>>55555555,,,,,,,,555555555555<<<<<<<<,,,,,,,,::::;;;;----111111111111111111111111",
"1111111111111111333333333333::::::::---->>>>>>>>>>>>>>>>>>>>333333333333&&&&&&&&11111111111111111111",
"1111111111111111333333333333::::::::---->>>>>>>>>>>>>>>>>>>>333333333333&&&&&&&&11111111111111111111",
"1111111111111111333333333333::::::::---->>>>>>>>>>>>>>>>>>>>333333333333&&&&&&&&11111111111111111111",
"1111111111111111333333333333::::::::---->>>>>>>>>>>>>>>>>>>>333333333333&&&&&&&&11111111111111111111",
"11111111111133334444444433332222%%%%$$$$************$$$$33334444444433333333&&&&$$$$1111111111111111",
"11111111111133334444444433332222%%%%$$$$************$$$$33334444444433333333&&&&$$$$1111111111111111",
"11111111111133334444444433332222%%%%$$$$************$$$$33334444444433333333&&&&$$$$1111111111111111",
"11111111111133334444444433332222%%%%$$$$************$$$$33334444444433333333&&&&$$$$1111111111111111",
"1111111133334444444433333333&&&&%%%%$$$$####@@@@$$$$&&&&222244444444333333333333&&&&$$$$111111111111",
"1111111133334444444433333333&&&&%%%%$$$$####@@@@$$$$&&&&222244444444333333333333&&&&$$$$111111111111",
"1111111133334444444433333333&&&&%%%%$$$$####@@@@$$$$&&&&222244444444333333333333&&&&$$$$111111111111",
"1111111133334444444433333333&&&&%%%%$$$$####@@@@$$$$&&&&222244444444333333333333&&&&$$$$111111111111",
"111133334444444433333333&&&&&&&&%%%%$$$$########$$$$&&&&2222333322222222222233333333$$$$####11111111",
"111133334444444433333333&&&&&&&&%%%%$$$$########$$$$&&&&2222333322222222222233333333$$$$####11111111",
"111133334444444433333333&&&&&&&&%%%%$$$$########$$$$&&&&2222333322222222222233333333$$$$####11111111",
"111133334444444433333333&&&&&&&&%%%%$$$$########$$$$&&&&2222333322222222222233333333$$$$####11111111",
"1111&&&&&&&&33333333&&&&%%%%$$$$$$$$$$$$########$$$$&&&&$$$$&&&&33334444444433333333&&&&$$$$@@@@1111",
"1111&&&&&&&&33333333&&&&%%%%$$$$$$$$$$$$########$$$$&&&&$$$$&&&&33334444444433333333&&&&$$$$@@@@1111",
"1111&&&&&&&&33333333&&&&%%%%$$$$$$$$$$$$########$$$$&&&&$$$$&&&&33334444444433333333&&&&$$$$@@@@1111",
"1111&&&&&&&&33333333&&&&%%%%$$$$$$$$$$$$########$$$$&&&&$$$$&&&&33334444444433333333&&&&$$$$@@@@1111",
"&&&&33334444444433333333&&&&&&&&%%%%$$$$########$$$$$$$$$$$$333333333333444444443333&&&&$$$$@@@@@@@@",
"&&&&33334444444433333333&&&&&&&&%%%%$$$$########$$$$$$$$$$$$333333333333444444443333&&&&$$$$@@@@@@@@",
"&&&&33334444444433333333&&&&&&&&%%%%$$$$########$$$$$$$$$$$$333333333333444444443333&&&&$$$$@@@@@@@@",
"&&&&33334444444433333333&&&&&&&&%%%%$$$$########$$$$$$$$$$$$333333333333444444443333&&&&$$$$@@@@@@@@"
};
